<?xml version="1.0" standalone="no"?>
<!DOCTYPE svg PUBLIC "-//W3C//DTD SVG 20010904//EN"
 "http://www.w3.org/TR/2001/REC-SVG-20010904/DTD/svg10.dtd">
<svg version="1.0" xmlns="http://www.w3.org/2000/svg"
 width="978.000000pt" height="911.000000pt" viewBox="0 0 478.000000 411.000000"
 preserveAspectRatio="xMidYMid meet">

<g transform="translate(0.000000,411.000000) scale(0.100000,-0.100000)"
fill="#FF0000" stroke="none">
<path d="M1821 3403 c-222 -669 -225 -676 -215 -727 6 -28 9 -92 6 -142 l-4
-92 -110 37 -110 36 -676 -228 c-493 -166 -677 -232 -677 -243 0 -10 183 -76
676 -242 l677 -227 99 33 c54 17 102 32 105 32 3 0 3 -88 0 -195 l-5 -195 24
0 c23 0 34 -29 229 -615 150 -451 209 -615 220 -615 11 0 70 163 220 612 l205
613 37 3 36 3 -5 194 -6 195 88 -30 c49 -17 96 -30 106 -30 14 0 17 -15 21
-112 7 -175 44 -228 159 -228 73 0 130 21 196 71 l53 40 0 -51 0 -50 95 0 95
0 0 269 0 269 186 62 c102 34 187 60 189 58 2 -2 -28 -80 -67 -173 -153 -367
-148 -354 -148 -422 l0 -63 260 0 260 0 0 70 0 70 -155 0 c-85 0 -155 3 -155
8 0 4 52 138 117 299 l117 292 65 23 c74 26 85 47 31 61 -49 12 -53 19 -36 62
9 21 16 64 16 96 l0 59 -245 0 -245 0 0 -25 c0 -24 -4 -23 -398 110 -219 74
-407 135 -418 135 -11 0 -60 -14 -109 -30 -49 -17 -90 -30 -92 -30 -2 0 -3 62
-3 138 l0 137 -226 678 c-175 521 -231 677 -243 677 -12 -1 -70 -164 -240
-677z m469 -88 c106 -319 195 -585 197 -592 4 -9 -18 -13 -73 -15 l-79 -3 -22
-100 c-13 -55 -29 -122 -36 -150 l-12 -50 -90 0 -90 0 -3 755 c-1 435 2 750 7
745 5 -6 95 -271 201 -590z m-252 423 l-3 -51 -29 24 -29 25 23 70 c12 38 25
74 29 79 7 12 13 -77 9 -147z m-20 -86 c21 -16 23 -25 20 -89 l-3 -72 -56 42
-56 42 19 57 c21 62 23 63 76 20z m-30 -174 l52 -39 0 -64 0 -64 -81 57 c-86
61 -87 63 -60 135 12 31 11 32 89 -25z m52 -645 l0 -433 -74 0 c-45 0 -78 5
-82 11 -4 7 -21 75 -38 153 l-31 141 -88 3 c-63 2 -87 6 -87 16 0 11 66 210
152 458 l20 57 68 -49 c74 -54 90 -60 90 -32 0 12 -26 37 -70 67 -38 27 -70
53 -70 60 0 6 7 32 16 57 l15 46 89 -61 89 -62 1 -432z m-538 -399 l108 -36 0
-107 c0 -60 -3 -136 -6 -170 l-7 -61 -441 1 c-243 1 -556 5 -696 8 l-254 6
584 197 c322 108 589 197 595 197 5 1 58 -15 117 -35z m1482 -44 c271 -91 290
-99 229 -100 l-43 0 -2 -62 c-1 -35 0 -84 1 -110 l3 -48 -111 0 -111 0 0 110
0 110 -95 0 -95 0 0 -110 0 -110 -110 0 -110 0 0 169 0 169 88 30 c48 17 94
31 103 31 8 1 122 -35 253 -79z m-944 -175 l0 -145 -43 0 -44 0 -26 118 -26
117 26 28 c21 21 36 27 70 27 l43 0 0 -145z m164 106 l38 -38 -24 -107 -23
-106 -57 0 -58 0 0 145 0 145 43 0 c37 0 48 -6 81 -39z m56 29 c0 -5 -4 -10
-9 -10 -6 0 -13 5 -16 10 -3 6 1 10 9 10 9 0 16 -4 16 -10z m-483 -97 c-3 -10
-5 -4 -5 12 0 17 2 24 5 18 2 -7 2 -21 0 -30z m603 -10 c0 -26 -3 -34 -11 -26
-9 9 -3 63 7 63 2 0 4 -17 4 -37z m1008 8 c10 -6 8 -13 -7 -32 l-20 -24 -1 33
c0 33 6 38 28 23z m115 -37 l46 -16 -47 -63 c-46 -63 -48 -64 -94 -65 -43 0
-48 2 -48 22 0 25 70 138 86 138 6 0 31 -7 57 -16z m-1689 -86 l14 -58 -29 0
c-28 0 -29 1 -29 53 0 29 6 59 12 65 7 7 14 9 15 5 1 -4 9 -34 17 -65z m554
30 c7 -7 12 -29 12 -50 0 -36 -2 -38 -31 -38 -23 0 -30 4 -26 14 3 8 9 31 13
50 7 38 13 43 32 24z m1332 -15 c0 -3 -11 -21 -26 -40 -24 -32 -27 -33 -95
-33 -38 0 -69 3 -69 6 0 3 12 21 26 40 26 33 29 34 95 34 38 0 69 -3 69 -7z
m89 -24 c34 -12 33 -11 25 -33 -5 -12 -20 -16 -60 -16 l-55 0 23 30 c25 34 24
34 67 19z m-1934 -166 c9 -43 21 -93 25 -112 5 -19 8 -36 6 -38 -1 -2 -30 26
-64 61 -57 59 -62 68 -62 108 0 53 4 58 46 58 32 0 32 0 49 -77z m185 -75 c0
-89 -4 -148 -9 -143 -9 10 -61 248 -61 279 0 12 9 16 35 16 l35 0 0 -152z
m140 135 c-1 -25 -57 -273 -64 -280 -3 -3 -12 -3 -21 0 -12 5 -15 29 -15 145
0 76 3 142 7 145 3 4 26 7 50 7 34 0 43 -3 43 -17z m200 -26 c0 -39 -5 -48
-55 -97 -30 -30 -55 -51 -55 -48 0 4 9 47 21 97 l21 91 34 0 c33 0 34 -1 34
-43z m378 -156 c1 -111 -2 -199 -7 -204 -6 -6 -45 3 -104 22 l-94 32 -5 167
c-3 92 -3 171 -1 175 3 4 50 6 106 5 l102 -3 3 -194z m412 66 l0 -133 -98 -32
c-54 -18 -103 -32 -110 -32 -9 0 -12 42 -12 158 0 87 3 162 7 165 3 4 53 7
110 7 l103 0 0 -133z m610 115 c0 -10 -6 -25 -12 -34 -10 -12 -381 -148 -404
-148 -7 0 -5 186 3 193 3 4 98 7 210 7 189 0 203 -1 203 -18z m-3380 -22 c-12
-16 -25 -30 -29 -30 -15 0 -136 43 -145 51 -6 5 34 9 93 9 l102 0 -21 -30z
m179 -25 c-23 -30 -47 -55 -53 -55 -17 0 -106 31 -106 37 0 2 12 20 26 39 26
33 28 34 101 34 l74 0 -42 -55z m211 50 c0 -4 -93 -138 -106 -154 -5 -6 -94
21 -100 30 -2 4 15 35 38 68 l43 60 63 0 c34 1 62 -1 62 -4z m808 -162 l-3
-166 -102 -35 -103 -34 -260 87 -260 87 51 73 c46 65 55 95 29 95 -5 0 -32
-33 -61 -72 -28 -40 -54 -75 -56 -77 -2 -3 -28 3 -58 13 l-55 17 62 90 62 89
378 0 378 0 -2 -167z m782 -35 l0 -63 -32 32 -32 33 29 30 c16 16 30 30 32 30
2 0 3 -28 3 -62z m-587 24 c16 -17 15 -20 -8 -42 l-25 -23 0 41 c0 46 8 52 33
24z m74 -74 c34 -31 29 -38 -27 -38 -27 0 -50 3 -50 7 0 8 41 53 49 53 2 0 15
-10 28 -22z m448 -8 l29 -30 -47 0 c-51 0 -58 11 -30 42 9 10 17 18 18 18 1 0
14 -13 30 -30z m855 -177 l0 -138 -43 -26 c-55 -34 -93 -43 -128 -29 -38 16
-49 55 -49 166 l0 92 103 35 c56 20 105 36 110 36 4 1 7 -61 7 -136z m-1206
-105 c27 -119 54 -218 62 -224 12 -10 14 -95 12 -540 l-3 -529 -174 520 c-96
286 -176 526 -179 533 -3 8 7 12 31 12 33 0 34 1 41 46 3 26 6 125 6 220 l0
174 78 0 78 0 48 -212z m146 205 c0 -5 -7 -30 -14 -58 l-14 -50 -1 58 c-1 44
2 57 14 57 8 0 15 -3 15 -7z m280 -213 l0 -220 25 0 c14 0 25 -3 25 -7 1 -21
-125 -373 -133 -373 -5 0 -38 20 -73 46 -60 42 -84 49 -84 21 0 -7 34 -36 74
-64 l74 -53 -16 -50 c-9 -27 -21 -50 -26 -50 -6 0 -47 27 -91 58 l-80 58 -3
207 -2 207 24 0 c21 0 27 7 35 38 11 41 91 391 91 398 0 2 36 4 80 4 l80 0 0
-220z m-218 -745 l76 -54 -16 -51 c-18 -58 -19 -58 -97 1 l-55 41 0 59 c0 33
3 59 8 59 4 0 42 -25 84 -55z m11 -189 c18 -14 17 -16 -18 -114 -3 -9 -16 -5
-45 14 l-40 27 0 74 0 74 43 -31 c23 -17 50 -37 60 -44z m-40 -170 c1 -17 -47
-156 -55 -156 -4 0 -8 45 -8 101 l0 101 31 -20 c17 -10 31 -22 32 -26z"/>
<path d="M4340 2281 c-70 -25 -120 -79 -146 -158 -17 -52 -19 -90 -19 -353 0
-341 6 -379 76 -455 52 -56 107 -75 217 -75 103 0 150 13 201 56 55 48 83 119
89 227 l4 87 -90 0 -89 0 -5 -85 c-3 -65 -9 -92 -24 -112 -25 -34 -68 -45
-116 -32 -30 8 -43 19 -60 52 -19 37 -21 59 -22 187 l-1 145 208 3 207 2 0 53
c0 92 -20 266 -36 315 -38 113 -101 154 -244 159 -75 3 -107 -1 -150 -16z
m199 -140 c29 -29 41 -84 41 -184 l0 -88 -112 3 -113 3 3 90 c2 95 22 168 50
185 31 17 110 12 131 -9z"/>
</g>
</svg>
